<?xml version="1.0" standalone="no"?>
<!DOCTYPE svg PUBLIC "-//W3C//DTD SVG 20010904//EN"
 "http://www.w3.org/TR/2001/REC-SVG-20010904/DTD/svg10.dtd">
<svg version="1.0" xmlns="http://www.w3.org/2000/svg"
 width="700.000000pt" height="700.000000pt" viewBox="0 0 700.000000 700.000000"
 preserveAspectRatio="xMidYMid meet">
<metadata>
Created by potrace 1.14, written by Peter Selinger 2001-2017
</metadata>
<g transform="translate(0.000000,700.000000) scale(0.100000,-0.100000)"
fill="#000000" stroke="none">
<path d="M3308 6275 c-2 -1 -48 -5 -103 -8 -55 -4 -111 -8 -125 -11 -14 -2
-59 -10 -100 -16 -90 -15 -93 -15 -150 -30 -25 -6 -58 -13 -75 -16 -40 -8
-291 -90 -332 -109 -17 -8 -33 -15 -36 -15 -13 0 -210 -96 -302 -148 -244
-136 -435 -282 -630 -483 -263 -271 -445 -546 -584 -881 -65 -158 -144 -423
-164 -553 -3 -16 -10 -59 -16 -95 -5 -36 -13 -96 -17 -135 -7 -79 -8 -534 0
-580 2 -16 7 -50 11 -75 77 -545 306 -1050 654 -1448 383 -437 883 -747 1419
-878 39 -9 155 -34 180 -39 15 -2 52 -9 82 -15 86 -17 218 -24 435 -24 182 0
358 9 374 18 3 2 29 6 56 10 156 19 422 93 608 168 590 240 1085 680 1395
1243 120 217 231 514 277 740 8 39 17 81 20 95 3 14 8 45 11 69 3 25 7 48 9
51 16 26 25 530 11 670 -5 56 -34 234 -50 309 -68 314 -207 649 -384 921 -192
297 -482 590 -792 801 -276 189 -630 336 -976 408 -197 40 -274 49 -474 50
-96 1 -187 3 -202 5 -15 2 -29 2 -30 1z m-48 -282 c0 -21 2 -110 5 -198 5
-150 8 -228 20 -500 2 -60 7 -182 10 -270 3 -88 8 -203 10 -255 3 -52 7 -150
10 -217 l6 -123 -24 0 c-46 0 -47 7 -62 350 -3 63 -7 158 -10 210 -2 52 -7
169 -11 260 -3 91 -7 197 -9 235 -2 39 -6 151 -10 250 -3 99 -8 201 -10 227
-4 52 8 67 53 68 19 0 22 -5 22 -37z m657 -251 c1 -136 5 -363 7 -504 l5 -258
-35 0 c-28 0 -34 4 -35 23 -5 89 -21 780 -21 886 0 113 6 126 51 110 l26 -9 2
-248z m-1583 11 c2 -10 7 -52 11 -93 3 -41 8 -93 10 -115 3 -22 7 -74 10 -115
3 -41 7 -100 10 -130 6 -61 11 -130 20 -235 3 -38 8 -95 10 -125 6 -66 13
-151 20 -240 3 -36 7 -93 10 -127 5 -56 4 -63 -16 -74 -28 -15 -38 1 -40 61
-1 25 -3 54 -4 65 -5 44 -19 197 -30 337 -3 43 -8 86 -10 96 -2 11 -6 66 -10
123 -4 57 -8 111 -10 119 -1 8 -6 60 -10 115 -4 55 -8 111 -10 125 -1 14 -6
66 -10 117 -6 82 -5 92 12 102 25 15 31 14 37 -6z m621 -199 c1 -33 6 -133 10
-224 4 -91 8 -212 9 -269 l1 -104 -27 -8 c-19 -5 -28 -3 -29 4 0 7 -2 19 -3
27 -2 8 -6 67 -10 130 -4 63 -9 138 -11 165 -7 83 -18 257 -19 300 -1 34 2 40
24 45 42 11 53 -2 55 -66z m1275 61 c9 -11 13 -67 14 -198 1 -100 -1 -194 -4
-209 -5 -27 -5 -27 -36 -12 l-31 15 -2 200 c-1 109 1 204 4 209 9 15 41 12 55
-5z m640 -122 c3 -3 6 -112 8 -244 l2 -240 -30 16 -30 16 -1 97 c0 132 0 311
0 345 1 25 4 27 24 21 12 -3 24 -9 27 -11z m-1273 -86 c8 -13 13 -126 17 -379
l3 -218 -34 0 c-30 0 -33 2 -34 33 0 17 -2 50 -4 72 -2 22 -6 145 -10 273 l-8
233 32 -3 c18 -1 35 -6 38 -11z m1563 -32 l23 -25 4 -954 c2 -525 0 -963 -5
-975 -5 -14 -11 -18 -21 -12 -17 11 -17 9 -25 1130 -4 464 -9 848 -12 852 -11
19 14 8 36 -16z m-596 -161 c5 -12 9 -622 7 -1026 -1 -120 -2 -128 -20 -128
-11 0 -23 5 -26 10 -8 13 -9 1146 -1 1159 8 13 33 4 40 -15z m-1889 -32 c2
-12 7 -65 10 -118 17 -249 15 -274 -25 -274 -22 0 -26 11 -29 77 -1 29 -4 61
-6 72 -2 10 -7 73 -10 138 -7 118 -7 119 16 130 27 12 38 6 44 -25z m-1144
-54 c0 -7 2 -21 4 -30 2 -9 6 -54 10 -100 4 -46 8 -90 10 -98 2 -8 6 -49 9
-90 4 -41 9 -91 11 -110 3 -19 7 -60 10 -90 2 -30 7 -78 10 -106 4 -47 3 -52
-21 -63 -15 -6 -28 -10 -30 -8 -2 2 -6 23 -9 48 -3 24 -7 60 -10 79 -2 19 -7
58 -10 85 -3 28 -8 66 -10 85 -3 19 -8 62 -11 95 -6 64 -9 96 -20 188 -6 50
-3 62 17 92 25 36 38 44 40 23z m2695 -192 c18 -13 19 -29 20 -208 1 -107 -3
-198 -8 -205 -10 -12 -38 -7 -49 9 -3 4 -7 72 -8 151 -1 78 -4 167 -5 197 -1
30 -1 58 1 63 6 11 27 8 49 -7z m-2401 -68 c4 -35 8 -74 10 -88 3 -21 9 -80
20 -215 12 -142 17 -195 20 -224 3 -19 7 -71 11 -115 3 -45 7 -91 9 -104 2
-12 7 -62 10 -110 7 -85 6 -88 -19 -111 l-26 -24 -1 24 c-1 13 -3 33 -4 44 -2
11 -6 54 -9 95 -4 41 -9 86 -11 100 -2 14 -6 57 -10 95 -3 39 -8 89 -11 113
-10 99 -13 131 -19 197 -4 39 -8 81 -10 95 -2 14 -7 61 -10 105 -4 44 -9 93
-11 109 -3 20 2 36 17 52 13 13 26 24 30 24 4 0 10 -28 14 -62z m-517 -55 c-1
-17 9 -101 17 -153 2 -14 7 -54 10 -90 3 -36 8 -76 10 -90 2 -14 6 -54 10 -90
4 -36 8 -76 10 -90 2 -14 7 -54 11 -90 11 -109 12 -113 17 -160 3 -25 11 -92
17 -150 6 -58 13 -116 15 -130 2 -14 6 -52 10 -85 3 -33 8 -76 10 -95 11 -91
17 -154 30 -280 1 -14 5 -47 9 -75 8 -66 12 -98 26 -238 9 -87 9 -122 1 -130
-15 -15 -18 -9 -25 48 -4 28 -9 64 -11 80 -3 17 -9 68 -15 115 -6 47 -12 99
-14 115 -3 17 -7 55 -11 85 -4 30 -8 66 -10 80 -3 14 -7 48 -10 75 -3 28 -8
61 -10 75 -5 30 -8 56 -35 265 -11 88 -22 174 -25 190 -2 17 -7 57 -11 90 -3
33 -8 69 -10 80 -2 11 -11 76 -19 145 -9 69 -18 141 -20 160 -7 48 -23 185
-29 239 -4 31 0 54 15 82 20 41 38 51 37 22z m-194 -440 c3 -32 8 -71 11 -88
5 -31 32 -246 41 -325 3 -25 7 -56 9 -70 3 -14 7 -47 11 -75 3 -27 8 -61 10
-75 1 -14 6 -52 10 -85 3 -33 8 -63 10 -66 5 -8 -27 -21 -34 -15 -4 5 -22 117
-36 231 -4 28 -9 57 -11 65 -2 8 -6 38 -10 65 -3 28 -8 59 -10 70 -2 11 -7 43
-10 70 -6 50 -10 83 -20 140 -3 17 -8 53 -11 80 -3 28 -6 52 -7 55 -3 11 25
80 32 80 5 0 11 -26 15 -57z m3766 10 c3 -3 5 -165 5 -360 0 -332 -1 -356 -18
-359 -9 -1 -22 7 -28 18 -10 19 -22 694 -12 711 4 7 42 0 53 -10z m-1520 -117
c88 -14 106 -17 190 -41 232 -65 361 -144 536 -328 180 -187 309 -432 374
-704 22 -93 46 -227 55 -302 4 -30 8 -62 10 -72 2 -10 6 -44 10 -76 3 -32 8
-69 10 -83 2 -14 7 -54 10 -90 3 -36 7 -76 9 -90 4 -22 12 -117 22 -255 2 -27
6 -79 9 -115 3 -36 8 -94 10 -130 2 -36 7 -101 10 -145 19 -264 30 -508 27
-561 -4 -54 -418 -210 -682 -258 -19 -3 -46 -8 -60 -11 -142 -29 -344 -41
-562 -36 l-27 1 4 118 c2 64 7 180 10 257 14 273 8 777 -10 1010 -8 93 -34
283 -49 355 -17 77 -16 78 74 110 70 24 195 83 221 103 38 30 28 91 -20 120
-41 24 -58 22 -168 -22 -116 -46 -229 -80 -373 -115 -96 -22 -129 -28 -230
-41 -41 -6 -249 -6 -302 0 -128 12 -179 24 -283 62 -202 74 -333 175 -375 288
-19 51 -21 73 -17 150 7 108 16 142 68 244 72 144 237 297 454 423 194 114
496 216 690 235 33 3 61 6 63 8 5 4 250 -3 292 -9z m2136 -30 c20 -14 20 -23
18 -288 -3 -424 1 -380 -31 -376 l-28 3 -2 338 c-2 357 -3 355 43 323z m303
-375 c11 -7 12 -110 7 -627 -3 -341 -8 -640 -11 -666 -6 -52 -42 -145 -52
-135 -7 7 -6 115 2 877 4 300 9 548 11 552 7 10 26 10 43 -1z m-4123 -163 c5
-55 -21 -147 -36 -131 -5 4 -11 40 -14 80 -6 65 -4 74 16 92 12 12 23 19 26
17 2 -2 6 -28 8 -58z m-425 -395 c0 -10 2 -27 5 -38 2 -11 6 -40 9 -65 3 -25
7 -61 10 -80 3 -19 7 -57 10 -85 3 -27 8 -61 10 -75 2 -14 6 -50 10 -80 3 -30
10 -80 15 -110 9 -57 16 -109 25 -195 3 -27 7 -66 10 -85 2 -19 7 -54 10 -77
3 -24 2 -43 -3 -43 -5 0 -9 6 -9 13 -1 11 -28 189 -38 248 -3 14 -7 41 -9 60
-4 29 -50 355 -61 429 -2 14 -6 43 -9 65 -3 22 -8 57 -11 78 -3 21 -3 43 1 48
9 15 24 10 25 -8z m477 -305 c11 -18 23 -60 26 -93 19 -170 19 -175 2 -181
-22 -9 -23 -7 -31 56 -3 30 -8 62 -10 70 -7 27 -17 180 -12 180 3 0 14 -15 25
-32z m565 -290 c12 -10 18 -37 23 -108 3 -52 7 -99 7 -104 2 -13 -25 -18 -40
-8 -7 4 -15 44 -19 92 -4 47 -7 94 -8 105 -4 37 8 44 37 23z m548 -25 c0 -16
2 -35 3 -43 2 -8 6 -69 10 -135 4 -66 9 -147 11 -180 13 -173 14 -236 3 -233
-6 2 -12 13 -13 24 -7 74 -16 180 -20 239 -3 39 -7 93 -10 120 -17 191 -17
235 -1 235 11 0 16 -9 17 -27z m-1276 -187 c4 -34 9 -69 11 -80 2 -10 6 -46 9
-80 3 -33 7 -77 10 -96 7 -51 14 -117 20 -180 3 -30 7 -71 10 -90 16 -117 16
-140 0 -134 -16 7 -16 7 -20 69 -2 39 -11 127 -20 195 -3 19 -8 67 -11 105 -3
39 -8 79 -10 90 -2 11 -6 45 -9 75 -3 30 -8 66 -10 80 -12 70 -15 111 -9 121
11 18 22 -9 29 -75z m3933 -214 c-3 -276 -4 -289 -24 -315 -19 -23 -22 -25
-26 -9 -3 10 -5 140 -4 289 l1 271 24 26 c14 14 26 26 29 26 2 0 2 -129 0
-288z m-637 -39 c0 -10 3 -203 5 -429 4 -344 2 -413 -9 -423 -12 -9 -15 14
-17 156 -4 349 -5 669 -2 691 5 26 22 30 23 5z m-2230 -120 c0 -10 2 -25 3
-33 6 -26 15 -132 21 -230 4 -52 8 -105 10 -118 2 -13 1 -30 -2 -38 -7 -20
-33 -18 -34 4 0 9 -2 25 -4 35 -2 10 -6 55 -10 100 -3 45 -8 98 -10 117 -2 19
-7 68 -10 108 -6 68 -6 72 14 72 13 0 21 -7 22 -17z m-530 -270 c1 -10 3 -27
4 -38 2 -21 16 -167 20 -220 4 -50 16 -178 21 -217 4 -40 -7 -56 -25 -35 -13
16 -22 84 -36 277 -5 63 -15 180 -20 212 -1 15 0 29 3 32 12 12 32 5 33 -11z
m315 -434 c3 -6 9 -62 11 -125 5 -101 4 -114 -10 -108 -20 7 -25 22 -32 94 -3
30 -8 76 -11 103 -4 42 -2 47 15 47 11 0 23 -5 27 -11z"/>
<path d="M2190 3938 c-84 -31 -92 -139 -12 -169 43 -17 100 5 117 43 13 32 7
77 -15 103 -18 22 -63 33 -90 23z"/>
<path d="M2634 3862 c-86 -70 -30 -199 78 -178 36 7 78 57 78 94 0 79 -98 132
-156 84z"/>
</g>
</svg>
